<?xml version="1.0" standalone="no"?><!DOCTYPE svg PUBLIC "-//W3C//DTD SVG 1.1//EN" "http://www.w3.org/Graphics/SVG/1.1/DTD/svg11.dtd"><svg t="1490684896425" class="icon" style="" viewBox="0 0 1024 1024" version="1.1" xmlns="http://www.w3.org/2000/svg" p-id="2374" xmlns:xlink="http://www.w3.org/1999/xlink" width="20" height="20"><defs><style type="text/css"></style></defs><path d="M557.796 511.852c0 96.506 0.079 193.012-0.138 289.514-0.02 9.09-0.403 18.67-3.217 27.16-7.142 21.574-22.774 29.449-43.089 19.543-17.89-8.723-34.924-20.094-50.433-32.641-54.771-44.297-108.274-90.166-163.37-134.041-10.738-8.546-26.346-14.82-39.927-15.271-52.813-1.746-105.711-0.493-158.579-0.818-30.177-0.185-35.032-5.011-35.15-35.335-0.3-78.864-0.413-157.73-0.074-236.592 0.133-31.454 5.554-36.444 36.936-36.579 50.35-0.214 100.748 1.2 151.019-0.824 15.13-0.61 32.518-7.044 44.382-16.464 60.399-47.952 119.288-97.809 178.83-146.845 6.448-5.312 13.099-11.712 20.733-13.972 14.387-4.255 33.236-12.428 43.384-6.744 10.472 5.863 17.541 26.161 17.885 40.345 1.746 71.286 0.807 142.639 0.807 213.968C557.796 454.788 557.796 483.319 557.796 511.852z" p-id="2375" fill="#ff5918"></path><path d="M960.906 506.665c-5.45 102.55-38.259 193.546-96.179 275.769-6.054 8.592-20.063 14.309-31.111 15.744-8.028 1.045-20.236-5.125-24.948-11.961-3.275-4.77 0.89-17.471 5.322-24.299 34.57-53.283 60.881-109.808 72.528-172.695 20.625-111.36-0.379-214.871-58.058-311.585-3.433-5.76-7.53-11.146-10.713-17.034-6.695-12.388-22.174-24.461-3.236-38.782 15.682-11.857 39.399-8.345 50.015 11.052 24.438 44.683 50.998 89.098 67.93 136.74C947.931 413.167 951.875 460.818 960.906 506.665z" p-id="2376" fill="#ff5918"></path><path d="M821.029 507.737c1.239 55.607-13.296 108.353-36.906 159.207-7.447 16.043-18.515 22.701-35.604 21.334-23.285-1.863-31.559-14.229-21.362-35.385 45.868-95.186 45.426-190.458 2.165-286.207-6.065-13.414-12.652-27.868 6.826-35.647 18.107-7.228 35.189-5.383 45.15 14.061C807.29 395.835 821.88 449.517 821.029 507.737z" p-id="2377" fill="#ff5918"></path><path d="M693.479 509.689c-5.234 27.635-9.052 52.327-14.786 76.564-4.664 19.707-23.001 29.274-42.233 24.029-21.525-5.869-20.418-21.371-15.574-37.896 12.539-42.802 12.78-85.47 0.281-128.367-4.397-15.096-6.694-30.451 13.551-36.804 20.492-6.429 38.806 1.282 43.646 21.267C684.997 455.877 688.824 483.949 693.479 509.689z" p-id="2378" fill="#ff5918"></path></svg>